<svg width="5473" height="1518" viewBox="0 0 5473 1518" fill="none" xmlns="http://www.w3.org/2000/svg">
<g clip-path="url(#clip0_0_1)">
<rect width="5473" height="1518" fill="url(#paint0_linear_0_1)"/>
<g filter="url(#filter0_d_0_1)">
<path d="M5162 90C5162 204.426 5254.4 297.272 5368.65 297.996L5370 298C5255.12 298 5162 391.125 5162 506C5162 391.125 5068.88 298 4954 298C5068.43 298 5161.27 205.601 5162 91.3447L5162 90Z" fill="#FED459"/>
</g>
<g filter="url(#filter1_d_0_1)">
<path d="M4800.61 1344C4800.61 1351.73 4794.35 1358 4786.61 1358H4614C4606.27 1358 4600 1351.73 4600 1344V944.022C4600 936.29 4606.27 930.022 4614 930.022H4786.61C4794.35 930.022 4800.61 936.29 4800.61 944.022V1344ZM5040.73 745.011C5048.46 745.011 5054.73 751.279 5054.73 759.011V1344C5054.73 1351.73 5048.46 1358 5040.73 1358H4868.11C4860.38 1358 4854.11 1351.73 4854.11 1344V759.011C4854.11 751.279 4860.38 745.011 4868.11 745.011H5040.73ZM5294.84 560C5302.57 560 5308.84 566.268 5308.84 574V1344C5308.84 1351.73 5302.57 1358 5294.84 1358H5122.22C5114.49 1358 5108.22 1351.73 5108.22 1344V574C5108.22 566.268 5114.49 560 5122.22 560H5294.84Z" fill="#2AE9FE"/>
</g>
<g filter="url(#filter2_d_0_1)">
<path d="M461 774V732.5C461 732.5 459.5 729.36 457 729.5C328.5 736.676 312.5 835 312.5 885V1159C218.9 1142.6 185.166 1203.17 179.999 1235.5C169.8 1348.01 274.818 1375.87 356.5 1347.08C418.5 1314 418.5 1254.5 418.5 1202V971.5C422 841 585 825.5 631.5 876.5C639.9 873.3 644 867.5 645 865C694 746.5 704 729.443 688 726.5C568.4 704.498 486.833 749 461 774Z" fill="white"/>
<path d="M448.5 1026C448.5 898.4 565.5 870.5 631.5 876.5C585 825.5 422 841 418.5 971.5V1202C418.5 1254.5 418.5 1314 356.5 1347.08C406.951 1329.3 448.5 1289.91 448.5 1235.5V1026Z" fill="#DCEBFB"/>
</g>
<g filter="url(#filter3_d_0_1)">
<path d="M821.044 1304V424.625H1041.86C1097.23 424.625 1144.78 435.699 1184.52 457.846C1224.25 479.993 1254.87 509.306 1276.36 545.783C1298.51 581.61 1309.59 621.019 1309.59 664.01C1309.59 695.928 1303.4 726.218 1291.02 754.879C1278.64 782.889 1261.06 807.642 1238.26 829.138C1215.46 849.982 1188.1 866.592 1156.18 878.969L1451.26 1304H1321.31L1041.86 899.488H932.431V1304H821.044ZM932.431 805.688H1041.86C1079.65 805.688 1110.26 798.848 1133.71 785.169C1157.81 770.838 1175.4 752.925 1186.47 731.429C1198.2 709.282 1204.06 686.809 1204.06 664.01C1204.06 636.652 1197.22 612.551 1183.54 591.706C1170.51 570.21 1151.62 553.6 1126.87 541.875C1102.77 530.15 1074.43 524.288 1041.86 524.288H932.431V805.688Z" fill="white"/>
<path d="M1764.02 1311.82C1723.63 1311.82 1685.85 1304 1650.68 1288.37C1615.5 1272.73 1584.24 1251.24 1556.88 1223.88C1530.17 1195.87 1509.33 1163.95 1494.35 1128.12C1479.36 1091.65 1471.87 1052.56 1471.87 1010.88C1471.87 969.186 1479.36 930.429 1494.35 894.602C1509.33 858.124 1530.17 826.206 1556.88 798.848C1584.24 770.838 1615.5 749.017 1650.68 733.383C1685.85 717.75 1723.63 709.933 1764.02 709.933C1804.41 709.933 1842.19 717.424 1877.36 732.406C1913.19 747.388 1944.13 768.233 1970.19 794.94V717.75H2067.89V1304H1970.19V1226.81C1944.13 1252.87 1913.19 1273.71 1877.36 1289.34C1842.19 1304.33 1804.41 1311.82 1764.02 1311.82ZM1777.7 1216.06C1814.83 1216.06 1848.38 1206.94 1878.34 1188.7C1908.95 1169.81 1933.06 1145.06 1950.64 1114.45C1968.88 1083.18 1978 1048.66 1978 1010.88C1978 973.094 1968.88 938.897 1950.64 908.281C1933.06 877.015 1908.95 852.262 1878.34 834.023C1848.38 815.133 1814.83 805.688 1777.7 805.688C1740.57 805.688 1706.7 815.133 1676.08 834.023C1646.12 852.262 1622.02 877.015 1603.78 908.281C1586.19 938.897 1577.4 973.094 1577.4 1010.88C1577.4 1048.66 1586.19 1083.18 1603.78 1114.45C1622.02 1145.06 1646.12 1169.81 1676.08 1188.7C1706.7 1206.94 1740.57 1216.06 1777.7 1216.06Z" fill="white"/>
<path d="M2254.88 1304V717.75H2352.59V812.527C2374.09 778.004 2401.77 751.622 2435.64 733.383C2470.17 715.144 2507.3 706.025 2547.03 706.025C2588.72 706.025 2627.15 716.447 2662.33 737.292C2698.15 757.485 2727.14 787.123 2749.29 826.206C2771.43 864.638 2782.51 911.538 2782.51 966.906V1304H2676.98V981.562C2676.98 935.314 2662.98 894.602 2634.97 859.427C2607.61 823.601 2568.85 805.688 2518.7 805.688C2491.34 805.688 2465.61 812.527 2441.51 826.206C2417.4 839.234 2397.86 858.45 2382.88 883.854C2367.9 909.258 2360.41 940.851 2360.41 978.631V1304H2254.88Z" fill="white"/>
<path d="M3340.42 1304L3075.63 981.562L3293.52 717.75H3415.66L3201.68 973.746L3474.28 1304H3340.42ZM2958.38 1304V366H3063.91V1304H2958.38Z" fill="white"/>
<path d="M3814.92 1315.73C3768.67 1315.73 3726 1307.91 3686.92 1292.28C3647.84 1275.99 3613.97 1253.84 3585.3 1225.83C3556.64 1197.82 3534.17 1164.93 3517.89 1127.15C3502.25 1089.37 3494.44 1048.66 3494.44 1005.01C3494.44 963.324 3501.93 924.566 3516.91 888.74C3532.54 852.262 3554.04 820.344 3581.4 792.985C3608.75 765.627 3640.35 744.457 3676.17 729.475C3712.65 713.842 3751.41 706.025 3792.45 706.025C3846.51 706.025 3896.02 719.053 3940.96 745.108C3985.91 770.513 4021.73 805.036 4048.44 848.679C4075.15 892.322 4088.5 941.828 4088.5 997.196V1040.19H3705.49C3688.55 1040.19 3671.29 1039.54 3653.7 1038.23C3636.11 1036.93 3618.85 1034.98 3601.91 1032.37C3606.47 1066.89 3618.52 1098.16 3638.07 1126.17C3658.26 1154.18 3683.66 1176.33 3714.28 1192.61C3744.89 1208.25 3778.77 1216.06 3815.9 1216.06C3853.02 1216.06 3887.55 1207.59 3919.47 1190.66C3951.38 1173.72 3977.11 1151.25 3996.66 1123.24L4025.97 1243.42C3997.96 1266.22 3965.72 1284.13 3929.24 1297.16C3893.41 1309.54 3855.3 1315.73 3814.92 1315.73ZM3598.98 961.044C3616.57 957.787 3634.16 955.507 3651.75 954.204C3669.98 952.901 3687.9 952.25 3705.49 952.25H3899.92C3914.26 952.25 3928.26 952.901 3941.94 954.204C3956.27 954.856 3970.6 955.833 3984.93 957.135C3979.07 926.52 3966.69 899.487 3947.8 876.038C3928.91 852.587 3906.11 834.023 3879.41 820.344C3852.7 806.665 3823.71 799.825 3792.45 799.825C3760.53 799.825 3730.89 807.316 3703.53 822.298C3676.82 836.628 3654.35 855.844 3636.11 879.946C3617.87 904.047 3605.5 931.08 3598.98 961.044Z" fill="white"/>
<path d="M4229.35 1304V717.75H4327.06V825.229C4347.91 790.706 4375.59 763.347 4410.12 743.154C4444.64 722.31 4485.68 711.888 4533.23 711.888L4559.61 817.413C4553.1 815.458 4545.93 814.156 4538.11 813.504C4530.95 812.201 4523.78 811.55 4516.62 811.55C4480.14 811.55 4448.22 819.367 4420.86 835C4393.5 850.633 4372.33 873.432 4357.35 903.396C4342.37 933.36 4334.88 969.838 4334.88 1012.83V1304H4229.35Z" fill="white"/>
</g>
</g>
<defs>
<filter id="filter0_d_0_1" x="4867" y="-10" width="616" height="616" filterUnits="userSpaceOnUse" color-interpolation-filters="sRGB">
<feFlood flood-opacity="0" result="BackgroundImageFix"/>
<feColorMatrix in="SourceAlpha" type="matrix" values="0 0 0 0 0 0 0 0 0 0 0 0 0 0 0 0 0 0 127 0" result="hardAlpha"/>
<feOffset dx="13"/>
<feGaussianBlur stdDeviation="50"/>
<feComposite in2="hardAlpha" operator="out"/>
<feColorMatrix type="matrix" values="0 0 0 0 0 0 0 0 0 0 0 0 0 0 0 0 0 0 0.25 0"/>
<feBlend mode="normal" in2="BackgroundImageFix" result="effect1_dropShadow_0_1"/>
<feBlend mode="normal" in="SourceGraphic" in2="effect1_dropShadow_0_1" result="shape"/>
</filter>
<filter id="filter1_d_0_1" x="4513" y="460" width="908.838" height="998" filterUnits="userSpaceOnUse" color-interpolation-filters="sRGB">
<feFlood flood-opacity="0" result="BackgroundImageFix"/>
<feColorMatrix in="SourceAlpha" type="matrix" values="0 0 0 0 0 0 0 0 0 0 0 0 0 0 0 0 0 0 127 0" result="hardAlpha"/>
<feOffset dx="13"/>
<feGaussianBlur stdDeviation="50"/>
<feComposite in2="hardAlpha" operator="out"/>
<feColorMatrix type="matrix" values="0 0 0 0 0 0 0 0 0 0 0 0 0 0 0 0 0 0 0.25 0"/>
<feBlend mode="normal" in2="BackgroundImageFix" result="effect1_dropShadow_0_1"/>
<feBlend mode="normal" in="SourceGraphic" in2="effect1_dropShadow_0_1" result="shape"/>
</filter>
<filter id="filter2_d_0_1" x="92.3097" y="620.571" width="715.734" height="837.064" filterUnits="userSpaceOnUse" color-interpolation-filters="sRGB">
<feFlood flood-opacity="0" result="BackgroundImageFix"/>
<feColorMatrix in="SourceAlpha" type="matrix" values="0 0 0 0 0 0 0 0 0 0 0 0 0 0 0 0 0 0 127 0" result="hardAlpha"/>
<feOffset dx="13"/>
<feGaussianBlur stdDeviation="50"/>
<feComposite in2="hardAlpha" operator="out"/>
<feColorMatrix type="matrix" values="0 0 0 0 0 0 0 0 0 0 0 0 0 0 0 0 0 0 0.25 0"/>
<feBlend mode="normal" in2="BackgroundImageFix" result="effect1_dropShadow_0_1"/>
<feBlend mode="normal" in="SourceGraphic" in2="effect1_dropShadow_0_1" result="shape"/>
</filter>
<filter id="filter3_d_0_1" x="750.044" y="270" width="3938.57" height="1149.73" filterUnits="userSpaceOnUse" color-interpolation-filters="sRGB">
<feFlood flood-opacity="0" result="BackgroundImageFix"/>
<feColorMatrix in="SourceAlpha" type="matrix" values="0 0 0 0 0 0 0 0 0 0 0 0 0 0 0 0 0 0 127 0" result="hardAlpha"/>
<feOffset dx="29" dy="4"/>
<feGaussianBlur stdDeviation="50"/>
<feComposite in2="hardAlpha" operator="out"/>
<feColorMatrix type="matrix" values="0 0 0 0 0 0 0 0 0 0 0 0 0 0 0 0 0 0 0.25 0"/>
<feBlend mode="normal" in2="BackgroundImageFix" result="effect1_dropShadow_0_1"/>
<feBlend mode="normal" in="SourceGraphic" in2="effect1_dropShadow_0_1" result="shape"/>
</filter>
<linearGradient id="paint0_linear_0_1" x1="3487.43" y1="903.536" x2="3097.06" y2="-546.73" gradientUnits="userSpaceOnUse">
<stop stop-color="#0088FF"/>
<stop offset="1" stop-color="#46FF5B"/>
</linearGradient>
<clipPath id="clip0_0_1">
<rect width="5473" height="1518" fill="white"/>
</clipPath>
</defs>
</svg>
