<svg width="1024" height="1024" viewBox="0 0 1024 1024" fill="none" xmlns="http://www.w3.org/2000/svg">
<rect width="1024" height="1024" fill="url(#paint0_linear_0_1)"/>
<path d="M767 257C767 301.934 803.141 338.426 847.94 338.993L849 339C803.713 339 767 375.713 767 421C767 375.713 730.287 339 685 339C729.934 339 766.426 302.859 766.993 258.06L767 257Z" fill="#FED459"/>
<path d="M461 251V209.5C461 209.5 459.5 206.36 457 206.5C328.5 213.676 312.5 312 312.5 362V636C218.9 619.6 185.166 680.167 179.999 712.5C169.8 825.009 274.818 852.872 356.5 824.084C418.5 791 418.5 731.5 418.5 679V448.5C422 318 585 302.5 631.5 353.5C639.9 350.3 644 344.5 645 342C694 223.5 704 206.443 688 203.5C568.4 181.498 486.833 226 461 251Z" fill="white"/>
<path d="M448.5 503C448.5 375.4 565.5 347.5 631.5 353.5C585 302.5 422 318 418.5 448.5V679C418.5 731.5 418.5 791 356.5 824.084C406.951 806.302 448.5 766.909 448.5 712.5V503Z" fill="#DCEBFB"/>
<path d="M588 803C588 810.732 581.732 817 574 817H512C504.268 817 498 810.732 498 803V639C498 631.268 504.268 625 512 625H574C581.732 625 588 631.268 588 639V803ZM688 542C695.732 542 702 548.268 702 556V803C702 810.732 695.732 817 688 817H626C618.268 817 612 810.732 612 803V556C612 548.268 618.268 542 626 542H688ZM802 459C809.732 459 816 465.268 816 473V803C816 810.732 809.732 817 802 817H740C732.268 817 726 810.732 726 803V473C726 465.268 732.268 459 740 459H802Z" fill="#2AE9FE"/>
<defs>
<linearGradient id="paint0_linear_0_1" x1="652.5" y1="609.5" x2="128.14" y2="69.1889" gradientUnits="userSpaceOnUse">
<stop stop-color="#0088FF"/>
<stop offset="1" stop-color="#46FF5B"/>
</linearGradient>
</defs>
</svg>
